<?xml version="1.0" encoding="utf-8"?>
<!-- Generator: Adobe Illustrator 24.1.2, SVG Export Plug-In . SVG Version: 6.00 Build 0)  -->
<svg version="1.1" id="Layer_1" xmlns="http://www.w3.org/2000/svg" xmlns:xlink="http://www.w3.org/1999/xlink" x="0px" y="0px"
	 viewBox="0 0 118.76 50.87" enable-background="new 0 0 118.76 50.87" xml:space="preserve">
<path fill="#B4EDF7" d="M93.76,49.22H25.42c-13.17,0-23.85-10.68-23.85-23.85v0c0-13.17,10.68-23.85,23.85-23.85h68.35
	c13.17,0,23.85,10.68,23.85,23.85v0C117.61,38.54,106.93,49.22,93.76,49.22z"/>
<linearGradient id="SVGID_1_" gradientUnits="userSpaceOnUse" x1="59.6015" y1="5.2496" x2="59.6015" y2="52.9507">
	<stop  offset="0.1659" style="stop-color:#97E3F0;stop-opacity:0"/>
	<stop  offset="0.4168" style="stop-color:#97E3F0"/>
</linearGradient>
<path fill="url(#SVGID_1_)" d="M93.76,49.22H25.44c-13.17,0-23.85-10.68-23.85-23.85v0c0-13.17,10.68-23.85,23.85-23.85h68.32
	c13.17,0,23.85,10.68,23.85,23.85v0C117.61,38.54,106.93,49.22,93.76,49.22z"/>
<path fill="none" stroke="#FFFFFF" stroke-width="2.5" stroke-linecap="round" stroke-miterlimit="10" d="M98.43,8.28
	c0,0,11.7,3.09,13.35,15.08"/>
</svg>
