<?xml version="1.0" encoding="utf-8"?>
<!-- Generator: Adobe Illustrator 24.2.0, SVG Export Plug-In . SVG Version: 6.00 Build 0)  -->
<svg version="1.1" id="Layer_1" xmlns="http://www.w3.org/2000/svg" xmlns:xlink="http://www.w3.org/1999/xlink" x="0px" y="0px"
	 viewBox="0 0 1983.4 134.9" style="enable-background:new 0 0 1983.4 134.9;" xml:space="preserve">
<style type="text/css">
	.st0{fill:#81D0DD;}
	.st1{fill:#E8E8E8;}
	.st2{fill:#97E3F0;}
	.st3{fill:#FFFFFF;}
</style>
<path class="st0" d="M1003.3,70.9h-23.2h-22.6v23.7v13.1v3.5c0,13.1,10.1,23.7,22.6,23.7h23.2c12.5,0,22.6-10.6,22.6-23.7v-3.5V94.6
	V70.9H1003.3z"/>
<path class="st0" d="M1140.1,70.9h-23.2h-22.6v23.7v13.1v3.5c0,13.1,10.1,23.7,22.6,23.7h23.2c12.5,0,22.6-10.6,22.6-23.7v-3.5V94.6
	V70.9H1140.1z"/>
<path class="st1" d="M1208.5,70.9h-23.2h-22.6v23.7v13.1v3.5c0,13.1,10.1,23.7,22.6,23.7h23.2c12.5,0,22.6-10.6,22.6-23.7v-3.5V94.6
	V70.9H1208.5z"/>
<path class="st0" d="M1276.9,70.9h-23.2h-22.6v23.7v13.1v3.5c0,13.1,10.1,23.7,22.6,23.7h23.2c12.5,0,22.6-10.6,22.6-23.7v-3.5V94.6
	V70.9H1276.9z"/>
<path class="st1" d="M1345.3,70.9H1322h-22.6v23.7v13.1v3.5c0,13.1,10.1,23.7,22.6,23.7h23.2c12.5,0,22.6-10.6,22.6-23.7v-3.5V94.6
	V70.9H1345.3z"/>
<path class="st0" d="M1413.6,70.9h-23.2h-22.6v23.7v13.1v3.5c0,13.1,10.1,23.7,22.6,23.7h23.2c12.5,0,22.6-10.6,22.6-23.7v-3.5V94.6
	V70.9H1413.6z"/>
<path class="st1" d="M1482,70.9h-23.2h-22.6v23.7v13.1v3.5c0,13.1,10.1,23.7,22.6,23.7h23.2c12.5,0,22.6-10.6,22.6-23.7v-3.5V94.6
	V70.9H1482z"/>
<path class="st0" d="M1550.4,70.9h-23.2h-22.6v23.7v13.1v3.5c0,13.1,10.1,23.7,22.6,23.7h23.2c12.5,0,22.6-10.6,22.6-23.7v-3.5V94.6
	V70.9H1550.4z"/>
<path class="st1" d="M1618.8,70.9h-23.2H1573v23.7v13.1v3.5c0,13.1,10.1,23.7,22.6,23.7h23.2c12.5,0,22.6-10.6,22.6-23.7v-3.5V94.6
	V70.9H1618.8z"/>
<path class="st0" d="M1687.2,70.9H1664h-22.6v23.7v13.1v3.5c0,13.1,10.1,23.7,22.6,23.7h23.2c12.5,0,22.6-10.6,22.6-23.7v-3.5V94.6
	V70.9H1687.2z"/>
<path class="st0" d="M592.9,70.9h-23.2h-22.6v23.7v13.1v3.5c0,13.1,10.1,23.7,22.6,23.7h23.2c12.5,0,22.6-10.6,22.6-23.7v-3.5V94.6
	V70.9H592.9z"/>
<path class="st1" d="M1071.7,70.9h-23.2h-22.6v23.7v13.1v3.5c0,13.1,10.1,23.7,22.6,23.7h23.2c12.5,0,22.6-10.6,22.6-23.7v-3.5V94.6
	V70.9H1071.7z"/>
<path class="st1" d="M934.9,70.9h-23.2h-22.6v23.7v13.1v3.5c0,13.1,10.1,23.7,22.6,23.7h23.2c12.5,0,22.6-10.6,22.6-23.7v-3.5V94.6
	V70.9H934.9z"/>
<path class="st0" d="M866.5,70.9h-23.2h-22.6v23.7v13.1v3.5c0,13.1,10.1,23.7,22.6,23.7h23.2c12.5,0,22.6-10.6,22.6-23.7v-3.5V94.6
	V70.9H866.5z"/>
<path class="st1" d="M798.1,70.9h-23.2h-22.6v23.7v13.1v3.5c0,13.1,10.1,23.7,22.6,23.7h23.2c12.5,0,22.6-10.6,22.6-23.7v-3.5V94.6
	V70.9H798.1z"/>
<path class="st1" d="M661.3,70.9h-23.2h-22.6v23.7v13.1v3.5c0,13.1,10.1,23.7,22.6,23.7h23.2c12.5,0,22.6-10.6,22.6-23.7v-3.5V94.6
	V70.9H661.3z"/>
<path class="st0" d="M729.7,70.9h-23.2h-22.6v23.7v13.1v3.5c0,13.1,10.1,23.7,22.6,23.7h23.2c12.5,0,22.6-10.6,22.6-23.7v-3.5V94.6
	V70.9H729.7z"/>
<polygon class="st2" points="957.5,70.9 961.3,0 1018.8,0 1025.9,70.9 "/>
<polygon class="st3" points="1025.9,70.9 1094.3,70.9 1079.1,0 1018.8,0 "/>
<polygon class="st3" points="957.5,70.9 889.1,70.9 904.3,0 964.5,0 "/>
<polygon class="st2" points="1094.3,70.9 1079.1,0 1132.5,0 1162.7,70.9 "/>
<polygon class="st2" points="889.1,70.9 904.3,0 850.8,0 820.7,70.9 "/>
<polygon class="st3" points="1162.7,70.9 1231.1,70.9 1194.1,0 1132.5,0 "/>
<polygon class="st3" points="820.7,70.9 752.3,70.9 789.3,0 850.8,0 "/>
<polygon class="st2" points="1231.1,70.9 1299.4,70.9 1250.4,0 1194.1,0 "/>
<polygon class="st2" points="752.3,70.9 683.9,70.9 732.9,0 789.3,0 "/>
<polygon class="st3" points="1250.4,0 1299.4,70.9 1367.8,70.9 1308.1,0 "/>
<polygon class="st3" points="732.9,0 683.9,70.9 615.5,70.9 675.3,0 "/>
<polygon class="st2" points="1308.1,0 1367.8,70.9 1436.2,70.9 1367.8,0 "/>
<polygon class="st2" points="675.3,0 615.5,70.9 547.1,70.9 615.5,0 "/>
<polygon class="st3" points="1367.8,0 1436.2,70.9 1504.6,70.9 1436.2,0 "/>
<polygon class="st3" points="1504.6,0 1573,70.9 1641.4,70.9 1573,0 "/>
<polygon class="st2" points="1436.2,0 1504.6,70.9 1573,70.9 1504.6,0 "/>
<polygon class="st2" points="1573,0 1641.4,70.9 1709.8,70.9 1641.4,0 "/>
<path class="st1" d="M1755.6,70.9h-23.2h-22.6v23.7v13.1v3.5c0,13.1,10.1,23.7,22.6,23.7h23.2c12.5,0,22.6-10.6,22.6-23.7v-3.5V94.6
	V70.9H1755.6z"/>
<path class="st0" d="M1824,70.9h-23.2h-22.6v23.7v13.1v3.5c0,13.1,10.1,23.7,22.6,23.7h23.2c12.5,0,22.6-10.6,22.6-23.7v-3.5V94.6
	V70.9H1824z"/>
<path class="st1" d="M1892.4,70.9h-23.2h-22.6v23.7v13.1v3.5c0,13.1,10.1,23.7,22.6,23.7h23.2c12.5,0,22.6-10.6,22.6-23.7v-3.5V94.6
	V70.9H1892.4z"/>
<path class="st0" d="M1960.8,70.9h-23.2H1915v23.7v13.1v3.5c0,13.1,10.1,23.7,22.6,23.7h23.2c12.5,0,22.6-10.6,22.6-23.7v-3.5V94.6
	V70.9H1960.8z"/>
<polygon class="st3" points="1641.4,0 1709.8,70.9 1778.2,70.9 1709.8,0 "/>
<polygon class="st3" points="1778.2,0 1846.6,70.9 1915,70.9 1846.6,0 "/>
<polygon class="st2" points="1709.8,0 1778.2,70.9 1846.6,70.9 1778.2,0 "/>
<polygon class="st2" points="1846.6,0 1915,70.9 1983.4,70.9 1915,0 "/>
<path class="st0" d="M319.4,70.9h-23.2h-22.6v23.7v13.1v3.5c0,13.1,10.1,23.7,22.6,23.7h23.2c12.5,0,22.6-10.6,22.6-23.7v-3.5V94.6
	V70.9H319.4z"/>
<path class="st1" d="M387.8,70.9h-23.2H342v23.7v13.1v3.5c0,13.1,10.1,23.7,22.6,23.7h23.2c12.5,0,22.6-10.6,22.6-23.7v-3.5V94.6
	V70.9H387.8z"/>
<path class="st0" d="M456.2,70.9h-23.2h-22.6v23.7v13.1v3.5c0,13.1,10.1,23.7,22.6,23.7h23.2c12.5,0,22.6-10.6,22.6-23.7v-3.5V94.6
	V70.9H456.2z"/>
<polygon class="st3" points="478.7,0 410.4,70.9 342,70.9 410.4,0 "/>
<polygon class="st2" points="547.1,0 478.7,70.9 410.4,70.9 478.7,0 "/>
<polygon class="st2" points="410.4,0 342,70.9 273.6,70.9 342,0 "/>
<path class="st1" d="M524.5,70.9h-23.2h-22.6v23.7v13.1v3.5c0,13.1,10.1,23.7,22.6,23.7h23.2c12.5,0,22.6-10.6,22.6-23.7v-3.5V94.6
	V70.9H524.5z"/>
<polygon class="st3" points="615.5,0 547.1,70.9 478.7,70.9 547.1,0 "/>
<path class="st0" d="M45.8,70.9H22.6H0v23.7v13.1v3.5c0,13.1,10.1,23.7,22.6,23.7h23.2c12.5,0,22.6-10.6,22.6-23.7v-3.5V94.6V70.9
	H45.8z"/>
<path class="st1" d="M114.2,70.9H91H68.4v23.7v13.1v3.5c0,13.1,10.1,23.7,22.6,23.7h23.2c12.5,0,22.6-10.6,22.6-23.7v-3.5V94.6V70.9
	H114.2z"/>
<path class="st0" d="M182.6,70.9h-23.2h-22.6v23.7v13.1v3.5c0,13.1,10.1,23.7,22.6,23.7h23.2c12.5,0,22.6-10.6,22.6-23.7v-3.5V94.6
	V70.9H182.6z"/>
<polygon class="st3" points="205.2,0 136.8,70.9 68.4,70.9 136.8,0 "/>
<polygon class="st2" points="273.6,0 205.2,70.9 136.8,70.9 205.2,0 "/>
<polygon class="st2" points="136.8,0 68.4,70.9 0,70.9 68.4,0 "/>
<path class="st1" d="M251,70.9h-23.2h-22.6v23.7v13.1v3.5c0,13.1,10.1,23.7,22.6,23.7H251c12.5,0,22.6-10.6,22.6-23.7v-3.5V94.6
	V70.9H251z"/>
<polygon class="st3" points="342,0 273.6,70.9 205.2,70.9 273.6,0 "/>
</svg>
